<mxfile host="app.diagrams.net" modified="2023-01-24T12:21:16.964Z" agent="5.0 (Windows NT 10.0; Win64; x64) AppleWebKit/537.36 (KHTML, like Gecko) Chrome/109.0.0.0 Safari/537.36" etag="BcojWCkdVtQ73sakF9Ro" version="20.8.10" type="github">
  <diagram id="C5RBs43oDa-KdzZeNtuy" name="Page-1">
    <mxGraphModel dx="1311" dy="686" grid="1" gridSize="10" guides="1" tooltips="1" connect="1" arrows="1" fold="1" page="1" pageScale="1" pageWidth="827" pageHeight="1169" math="0" shadow="0">
      <root>
        <mxCell id="WIyWlLk6GJQsqaUBKTNV-0" />
        <mxCell id="WIyWlLk6GJQsqaUBKTNV-1" parent="WIyWlLk6GJQsqaUBKTNV-0" />
        <mxCell id="Nyh2nicJQedX6cPs4jKJ-4" value="" style="edgeStyle=orthogonalEdgeStyle;rounded=0;orthogonalLoop=1;jettySize=auto;html=1;" edge="1" parent="WIyWlLk6GJQsqaUBKTNV-1" source="Nyh2nicJQedX6cPs4jKJ-0" target="Nyh2nicJQedX6cPs4jKJ-1">
          <mxGeometry relative="1" as="geometry" />
        </mxCell>
        <mxCell id="Nyh2nicJQedX6cPs4jKJ-0" value="start" style="ellipse;whiteSpace=wrap;html=1;" vertex="1" parent="WIyWlLk6GJQsqaUBKTNV-1">
          <mxGeometry x="75" y="40" width="120" height="80" as="geometry" />
        </mxCell>
        <mxCell id="Nyh2nicJQedX6cPs4jKJ-7" value="" style="edgeStyle=orthogonalEdgeStyle;rounded=0;orthogonalLoop=1;jettySize=auto;html=1;" edge="1" parent="WIyWlLk6GJQsqaUBKTNV-1" source="Nyh2nicJQedX6cPs4jKJ-1">
          <mxGeometry relative="1" as="geometry">
            <mxPoint x="135" y="270" as="targetPoint" />
          </mxGeometry>
        </mxCell>
        <mxCell id="Nyh2nicJQedX6cPs4jKJ-1" value="firstnum=0&lt;br&gt;secondnum=0&lt;br&gt;sum=0&lt;br&gt;ave=0" style="shape=hexagon;perimeter=hexagonPerimeter2;whiteSpace=wrap;html=1;fixedSize=1;" vertex="1" parent="WIyWlLk6GJQsqaUBKTNV-1">
          <mxGeometry x="75" y="160" width="120" height="80" as="geometry" />
        </mxCell>
        <mxCell id="Nyh2nicJQedX6cPs4jKJ-8" value="" style="edgeStyle=orthogonalEdgeStyle;rounded=0;orthogonalLoop=1;jettySize=auto;html=1;" edge="1" parent="WIyWlLk6GJQsqaUBKTNV-1" source="Nyh2nicJQedX6cPs4jKJ-2" target="Nyh2nicJQedX6cPs4jKJ-3">
          <mxGeometry relative="1" as="geometry" />
        </mxCell>
        <mxCell id="Nyh2nicJQedX6cPs4jKJ-2" value="INPUTget firstnum()&lt;br&gt;get secondnum()" style="shape=parallelogram;perimeter=parallelogramPerimeter;whiteSpace=wrap;html=1;fixedSize=1;" vertex="1" parent="WIyWlLk6GJQsqaUBKTNV-1">
          <mxGeometry x="60" y="290" width="150" height="60" as="geometry" />
        </mxCell>
        <mxCell id="Nyh2nicJQedX6cPs4jKJ-9" value="" style="edgeStyle=orthogonalEdgeStyle;rounded=0;orthogonalLoop=1;jettySize=auto;html=1;" edge="1" parent="WIyWlLk6GJQsqaUBKTNV-1" source="Nyh2nicJQedX6cPs4jKJ-3" target="Nyh2nicJQedX6cPs4jKJ-5">
          <mxGeometry relative="1" as="geometry" />
        </mxCell>
        <mxCell id="Nyh2nicJQedX6cPs4jKJ-3" value="sum=firstnum+&lt;br&gt;secondnum" style="rounded=0;whiteSpace=wrap;html=1;" vertex="1" parent="WIyWlLk6GJQsqaUBKTNV-1">
          <mxGeometry x="75" y="390" width="120" height="60" as="geometry" />
        </mxCell>
        <mxCell id="Nyh2nicJQedX6cPs4jKJ-10" value="" style="edgeStyle=orthogonalEdgeStyle;rounded=0;orthogonalLoop=1;jettySize=auto;html=1;" edge="1" parent="WIyWlLk6GJQsqaUBKTNV-1" source="Nyh2nicJQedX6cPs4jKJ-5" target="Nyh2nicJQedX6cPs4jKJ-6">
          <mxGeometry relative="1" as="geometry" />
        </mxCell>
        <mxCell id="Nyh2nicJQedX6cPs4jKJ-5" value="" style="shape=parallelogram;perimeter=parallelogramPerimeter;whiteSpace=wrap;html=1;fixedSize=1;" vertex="1" parent="WIyWlLk6GJQsqaUBKTNV-1">
          <mxGeometry x="75" y="600" width="120" height="60" as="geometry" />
        </mxCell>
        <mxCell id="Nyh2nicJQedX6cPs4jKJ-6" value="end" style="ellipse;whiteSpace=wrap;html=1;" vertex="1" parent="WIyWlLk6GJQsqaUBKTNV-1">
          <mxGeometry x="75" y="700" width="120" height="80" as="geometry" />
        </mxCell>
        <mxCell id="Nyh2nicJQedX6cPs4jKJ-11" value="ave=sum/2" style="rounded=0;whiteSpace=wrap;html=1;" vertex="1" parent="WIyWlLk6GJQsqaUBKTNV-1">
          <mxGeometry x="75" y="480" width="120" height="60" as="geometry" />
        </mxCell>
      </root>
    </mxGraphModel>
  </diagram>
</mxfile>
